# xmcd
#
# Track frame offsets: 
#        150
#        18024
#        34090
#        53342
#        71181
#        87445
#        105402
#        123682
#        136872
#        150618
#        166547
#        182537
#
# Disc length: 2679 seconds
#
# Revision: 0
# Processed by: cddbd v1.5.2PL0 Copyright (c) Steve Scherf et al.
# Submitted via: ExactAudioCopy v0.95b4
#
DISCID=8a0a750c
DTITLE=Adam Brand - Hell Of A Ride
DYEAR=2009
DGENRE=Country
TTITLE0=Hell Of A Ride
TTITLE1=Kissing The Phone
TTITLE2=Wondering
TTITLE3=Ready For Love
TTITLE4=Blue Sky Cathedral
TTITLE5=Crazy Like That
TTITLE6=That's A Man
TTITLE7=Thump
TTITLE8=Some Dreams
TTITLE9=Letting Go
TTITLE10=Stupid Today
TTITLE11=Yesterday Was Beautiful
EXTD=
EXTT0=
EXTT1=
EXTT2=
EXTT3=
EXTT4=
EXTT5=
EXTT6=
EXTT7=
EXTT8=
EXTT9=
EXTT10=
EXTT11=
PLAYORDER=
